<svg width="32" height="32" viewBox="0 0 32 32" fill="none" xmlns="http://www.w3.org/2000/svg">
<path fill-rule="evenodd" clip-rule="evenodd" d="M14.5652 4.36408C14.5081 4.40947 14.4479 4.45219 14.3848 4.49196L5.6273 10.007C4.66954 10.6102 4.0197 11.7408 4.0197 13.0315C4.0197 13.1272 4.01299 13.2213 4 13.3134V24.2018C4.01299 24.2938 4.0197 24.3879 4.0197 24.4836C4.0197 26.5553 5.60053 27.9803 7.24247 27.9803C7.33814 27.9803 7.43224 27.987 7.52432 28H24.4757C24.5678 27.987 24.6619 27.9803 24.7575 27.9803C26.3994 27.9803 27.9803 26.5553 27.9803 24.4836C27.9803 24.3879 27.987 24.2938 28 24.2018V13.0315C28 11.7355 27.3479 10.5979 26.3832 9.99036L17.6257 4.47529C17.6257 4.47528 17.6257 4.47529 17.6257 4.47529C16.6822 3.88113 15.5343 3.84404 14.5652 4.36408ZM31.9736 24.8091C31.8139 28.7079 28.7977 31.7971 25.0903 31.9724C24.9821 31.9906 24.8709 32 24.7575 32H7.24247C7.1291 32 7.01794 31.9906 6.90971 31.9724C3.20224 31.7972 0.186127 28.7079 0.0263602 24.8091C0.00901794 24.7032 0 24.5945 0 24.4836V13.0315C0 12.9203 0.00908029 12.8112 0.0265399 12.7049C0.131072 10.2096 1.4284 7.92421 3.49574 6.62229L12.0148 1.25738C12.0858 1.19731 12.1618 1.14148 12.2428 1.09049C14.5518 -0.363513 17.4483 -0.363488 19.7572 1.09051L28.5148 6.60562C30.6803 7.96937 32 10.4066 32 13.0315V24.4836C32 24.5945 31.991 24.7032 31.9736 24.8091Z" fill="url(#paint0_linear_518_57)"/>
<path d="M23.2781 13.8047C23.9383 14.5105 23.9012 15.618 23.1953 16.2781C22.1511 17.2548 20.1244 19.0275 18.3843 20.5349C17.5089 21.2932 16.6973 21.9919 16.1046 22.5009C15.8083 22.7554 15.5665 22.9626 15.3988 23.1063L15.1372 23.3302C14.4233 23.9402 13.3549 23.8783 12.7166 23.1897L12.6966 23.1682L12.6332 23.1003C12.5771 23.0404 12.494 22.952 12.3877 22.8397C12.175 22.615 11.8699 22.2955 11.5028 21.9188C10.7659 21.1626 9.78978 20.1869 8.81347 19.2863C8.10305 18.631 8.05836 17.5239 8.71366 16.8135C9.36896 16.1031 10.4761 16.0584 11.1865 16.7137C12.2264 17.6728 13.2503 18.6971 14.0094 19.476L14.121 19.5908C14.6722 19.1168 15.3602 18.524 16.0927 17.8894C17.845 16.3715 19.8184 14.6443 20.8046 13.7219C21.5105 13.0617 22.618 13.0988 23.2781 13.8047Z" fill="url(#paint1_linear_518_57)"/>
<defs>
<linearGradient id="paint0_linear_518_57" x1="3.92783" y1="27.3591" x2="31.6788" y2="12.3696" gradientUnits="userSpaceOnUse">
<stop stop-color="#3300FF"/>
<stop offset="0.463542" stop-color="#6800F7"/>
<stop offset="1" stop-color="#A300EF"/>
</linearGradient>
<linearGradient id="paint1_linear_518_57" x1="10.1525" y1="22.2271" x2="20.7674" y2="13.7632" gradientUnits="userSpaceOnUse">
<stop stop-color="#3300FF"/>
<stop offset="0.463542" stop-color="#6800F7"/>
<stop offset="1" stop-color="#A300EF"/>
</linearGradient>
</defs>
</svg>
