<svg width="85" height="21" viewBox="0 0 85 21" fill="none" xmlns="http://www.w3.org/2000/svg">
<path fill-rule="evenodd" clip-rule="evenodd" d="M9.52391 2.72775C9.48821 2.75612 9.4506 2.78282 9.41113 2.80768L3.9373 6.25485C3.33866 6.63185 2.93248 7.33854 2.93248 8.14531C2.93248 8.2051 2.92829 8.26392 2.92017 8.32147V15.1272C2.92829 15.1848 2.93248 15.2436 2.93248 15.3034C2.93248 16.5983 3.92057 17.489 4.94686 17.489C5.00666 17.489 5.06548 17.4932 5.12303 17.5013H15.7184C15.776 17.4932 15.8348 17.489 15.8946 17.489C16.9208 17.489 17.909 16.5983 17.909 15.3034C17.909 15.2436 17.9132 15.1848 17.9213 15.1272V8.14531C17.9213 7.33521 17.5137 6.62416 16.9107 6.24444L11.4369 2.79726C10.8471 2.42588 10.1296 2.4027 9.52391 2.72775ZM20.405 15.5069C20.3051 17.9438 18.4199 19.8747 16.1026 19.9842C16.0349 19.9956 15.9654 20.0015 15.8946 20.0015H4.94686C4.876 20.0015 4.80652 19.9956 4.73887 19.9842C2.42153 19.8747 0.536321 17.9438 0.436459 15.5069C0.42562 15.4406 0.419983 15.3727 0.419983 15.3034V8.14531C0.419983 8.07578 0.425659 8.00758 0.436572 7.94115C0.501909 6.3815 1.3128 4.953 2.60498 4.13924L7.92977 0.785922C7.97415 0.748376 8.02169 0.713477 8.0723 0.681609C9.5155 -0.227213 11.326 -0.227197 12.7692 0.681619L18.243 4.12882C19.5966 4.98122 20.4215 6.50461 20.4215 8.14531V15.3034C20.4215 15.3727 20.4158 15.4406 20.405 15.5069Z" fill="url(#paint0_linear_913_491)"/>
<path d="M14.9699 8.62854C15.3825 9.06976 15.3594 9.76195 14.9181 10.1746C14.2654 10.785 12.9987 11.8931 11.9111 12.8352C11.3638 13.3093 10.8566 13.7459 10.4861 14.0641C10.3009 14.2232 10.1498 14.3527 10.0449 14.4425L9.88142 14.5824C9.43522 14.9637 8.76745 14.9251 8.36845 14.4946L8.35595 14.4812L8.31634 14.4388C8.28128 14.4013 8.22934 14.346 8.16289 14.2759C8.02994 14.1354 7.83925 13.9357 7.60974 13.7002C7.14915 13.2276 6.53905 12.6177 5.92881 12.0548C5.48476 11.6453 5.45683 10.9532 5.86642 10.5092C6.27602 10.0651 6.96803 10.0372 7.41208 10.4468C8.06202 11.0463 8.70201 11.6865 9.17648 12.1734L9.24625 12.2451C9.59082 11.9489 10.0208 11.5783 10.4787 11.1817C11.5739 10.2329 12.8074 9.15334 13.4238 8.5768C13.8651 8.16416 14.5573 8.18732 14.9699 8.62854Z" fill="url(#paint1_linear_913_491)"/>
<path d="M32.359 16.4855H35.439L32.1284 12.0055C33.9072 11.5443 35.0766 10.1937 35.0766 8.49725C35.0766 6.42196 33.4625 5.03843 30.6954 5.03843H25.5401V16.4855H28.0931V12.2525H29.3284L32.359 16.4855ZM28.0931 7.19607H30.7119C31.8154 7.19607 32.4578 7.80549 32.4578 8.66196C32.4578 9.51843 31.8484 10.1443 30.7119 10.1443H28.0931V7.19607Z" fill="#151516"/>
<path d="M40.3103 6.94902C37.4279 6.94902 35.6161 9.1396 35.6161 11.8243C35.6161 14.789 37.5432 16.7325 40.5244 16.7325C42.0891 16.7325 43.4397 16.3373 44.642 15.1184L43.1926 13.4878C42.5008 14.3443 41.6279 14.6573 40.7385 14.6573C39.1244 14.6573 38.1361 13.7678 38.0538 12.3843H44.8891C45.0538 9.04078 43.242 6.94902 40.3103 6.94902ZM40.3103 9.05725C41.3479 9.05725 42.155 9.50196 42.3856 10.6714H38.1032C38.3667 9.58431 39.2232 9.05725 40.3103 9.05725Z" fill="#151516"/>
<path d="M49.2627 16.7161C51.7827 16.7161 53.2485 15.4478 53.2485 13.6196C53.2485 11.6761 51.4368 11.1161 50.4485 10.8855L48.9991 10.5396C48.505 10.4243 47.978 10.2596 47.978 9.73255C47.978 9.23843 48.4227 8.95843 49.1968 8.95843C50.2344 8.95843 51.025 9.45255 51.5027 10.0455L52.8368 8.25019C51.9803 7.47607 50.7944 6.94902 49.345 6.94902C47.0391 6.94902 45.6227 8.05255 45.6227 9.84784C45.6227 11.5608 46.8909 12.302 48.3568 12.6314L49.7733 12.9443C50.1356 13.0267 50.8438 13.1584 50.8438 13.8008C50.8438 14.3937 50.2015 14.7396 49.2297 14.7396C48.1427 14.7396 47.4344 14.3114 46.9074 13.4055L45.1615 14.9208C46.3474 16.3867 47.7144 16.7161 49.2627 16.7161Z" fill="#151516"/>
<path d="M55.405 5.73019C56.2121 5.73019 56.838 5.20313 56.838 4.39607C56.838 3.58902 56.2121 3.06196 55.405 3.06196C54.5486 3.06196 53.9392 3.58902 53.9392 4.39607C53.9392 5.20313 54.5486 5.73019 55.405 5.73019ZM54.1533 16.4855H56.6239V7.1796H54.1533V16.4855Z" fill="#151516"/>
<path d="M65.0859 3.52313V8.03608C64.4106 7.36078 63.3729 6.93255 62.2035 6.93255C59.6506 6.93255 57.6082 8.94196 57.6082 11.8737C57.6082 14.9208 59.7659 16.749 62.1706 16.749C63.5212 16.749 64.7071 16.189 65.3494 15.382L65.4976 16.4855H67.54V3.52313H65.0859ZM62.6318 14.509C61.0671 14.509 60.1776 13.4055 60.1776 11.8573C60.1776 10.3255 61.0835 9.17255 62.6482 9.17255C64.1635 9.17255 65.0859 10.2431 65.0859 11.8408C65.0859 13.4384 64.18 14.509 62.6318 14.509Z" fill="#151516"/>
<path d="M73.2842 6.94902C70.4019 6.94902 68.5901 9.1396 68.5901 11.8243C68.5901 14.789 70.5172 16.7325 73.4984 16.7325C75.0631 16.7325 76.4137 16.3373 77.616 15.1184L76.1666 13.4878C75.4748 14.3443 74.6019 14.6573 73.7125 14.6573C72.0984 14.6573 71.1101 13.7678 71.0278 12.3843H77.8631C78.0278 9.04078 76.216 6.94902 73.2842 6.94902ZM73.2842 9.05725C74.3219 9.05725 75.1289 9.50196 75.3595 10.6714H71.0772C71.3407 9.58431 72.1972 9.05725 73.2842 9.05725Z" fill="#151516"/>
<path d="M81.4468 8.77725V7.1796H78.9763V16.4855H81.4468V10.9184C82.0068 9.96313 82.9127 9.46902 84.3127 9.58431L84.3457 6.93255C83.2421 6.94902 82.188 7.62431 81.4468 8.77725Z" fill="#151516"/>
<defs>
<linearGradient id="paint0_linear_913_491" x1="10.4207" y1="-7.55237e-09" x2="10.4078" y2="19.9957" gradientUnits="userSpaceOnUse">
<stop offset="0.562841" stop-color="#005BBB"/>
<stop offset="0.56304" stop-color="#FFD500"/>
</linearGradient>
<linearGradient id="paint1_linear_913_491" x1="10.4207" y1="-7.55237e-09" x2="10.4078" y2="19.9957" gradientUnits="userSpaceOnUse">
<stop offset="0.562841" stop-color="#005BBB"/>
<stop offset="0.56304" stop-color="#FFD500"/>
</linearGradient>
</defs>
</svg>
